<svg xmlns="http://www.w3.org/2000/svg" xmlns:xlink="http://www.w3.org/1999/xlink"><symbol id="icon-bag" viewBox="0 0 32.000000 25.000000" preserveAspectRatio="xMidYMid meet">

<g transform="translate(0.000000,25.000000) scale(0.100000,-0.100000)" stroke="none">
<path d="M90 231 c-7 -13 -23 -21 -48 -23 l-37 -3 -3 -91 c-2 -69 1 -94 12
-103 9 -8 58 -11 157 -9 l144 3 0 100 0 100 -37 3 c-25 2 -41 10 -48 23 -9 15
-22 19 -70 19 -48 0 -61 -4 -70 -19z m120 -11 c0 -5 -22 -10 -50 -10 -27 0
-50 5 -50 10 0 6 23 10 50 10 28 0 50 -4 50 -10z m88 -42 c-14 -43 -181 -60
-245 -25 -18 10 -33 22 -33 27 0 6 56 10 141 10 108 0 140 -3 137 -12z m-210
-59 c23 -6 42 -17 42 -25 0 -18 56 -19 67 -1 4 8 22 19 38 24 17 6 38 14 48
18 15 6 17 0 17 -54 l0 -62 -137 3 -138 3 -3 59 c-2 45 0 57 10 53 7 -3 32
-11 56 -18z"/>
</g>
</symbol><symbol id="icon-elem" viewBox="0 0 23.000000 25.000000" preserveAspectRatio="xMidYMid meet">

<g transform="translate(0.000000,25.000000) scale(0.100000,-0.100000)" stroke="none">
<path d="M0 180 c0 -57 23 -96 71 -120 38 -20 45 -40 13 -40 -8 0 -14 -4 -14
-10 0 -13 77 -13 85 0 3 5 -3 10 -14 10 -35 0 -23 24 19 42 29 12 45 27 55 52
17 40 20 106 5 106 -5 0 -10 -21 -10 -46 0 -37 -5 -51 -29 -75 -27 -27 -70
-42 -56 -19 3 6 12 10 20 10 23 0 45 42 45 88 0 24 -4 41 -8 38 -5 -3 -7 -18
-4 -34 3 -20 -3 -37 -21 -58 -14 -16 -29 -26 -33 -21 -4 4 2 14 14 23 16 11
22 25 22 55 0 21 -4 39 -10 39 -5 0 -10 -18 -10 -40 0 -22 -4 -40 -10 -40 -5
0 -10 18 -10 41 0 27 -4 38 -11 33 -7 -4 -9 -21 -6 -40 3 -19 2 -34 -4 -34 -5
0 -9 18 -9 40 0 22 -4 40 -10 40 -16 0 -11 -72 7 -92 23 -26 9 -34 -16 -9 -15
15 -21 34 -21 63 0 23 -3 38 -7 34 -4 -4 -6 -26 -4 -49 3 -43 24 -77 47 -77 7
0 16 -5 19 -10 14 -23 -29 -8 -56 19 -24 24 -29 38 -29 75 0 25 -4 46 -10 46
-5 0 -10 -18 -10 -40z"/>
</g>
</symbol><symbol id="icon-facebook" viewBox="0 0 11 22">
<path d="M8.53781 4.18705H10.4V0.943455C10.0787 0.899255 8.97382 0.799805 7.68703 0.799805C5.0021 0.799805 3.16285 2.48875 3.16285 5.59296V8.44981H0.200001V12.0759H3.16285V21.1998H6.79545V12.0768H9.63846L10.0898 8.45066H6.7946V5.95251C6.79545 4.90445 7.07763 4.18705 8.53781 4.18705Z"/>
</symbol><symbol id="icon-heand" viewBox="0 0 32.000000 29.000000" preserveAspectRatio="xMidYMid meet">

<g transform="translate(0.000000,29.000000) scale(0.100000,-0.100000)" stroke="none">
<path d="M171 277 c-18 -18 -13 -39 16 -69 34 -36 55 -35 87 3 29 34 30 38 17
58 -11 18 -104 24 -120 8z m47 -19 c8 -8 15 -8 27 2 12 10 19 10 28 1 9 -9 5
-18 -16 -38 l-27 -28 -26 27 c-15 14 -23 31 -20 37 9 14 19 14 34 -1z"/>
<path d="M4 136 c-3 -7 -4 -40 -2 -72 3 -54 5 -59 27 -62 15 -2 30 3 37 13 10
14 18 15 55 5 63 -17 167 6 191 43 14 23 -4 39 -40 33 -26 -4 -38 -1 -51 14
-11 13 -40 21 -100 29 -107 14 -111 14 -117 -3z m56 -23 c0 -46 -14 -93 -26
-93 -10 0 -14 15 -14 55 0 48 2 55 20 55 12 0 20 -7 20 -17z m104 1 c51 -7 63
-24 16 -24 -16 0 -30 -5 -30 -11 0 -8 23 -10 75 -7 41 3 72 1 70 -3 -12 -18
-108 -41 -147 -35 -63 10 -75 20 -70 55 5 34 9 35 86 25z"/>
</g>
</symbol><symbol id="icon-inst" viewBox="0 0 24 24">
<path d="M12 8.3999C10.0149 8.3999 8.40002 10.0148 8.40002 11.9999C8.40002 13.985 10.0149 15.5999 12 15.5999C13.9852 15.5999 15.6 13.985 15.6 11.9999C15.6 10.0148 13.9852 8.3999 12 8.3999Z"/>
<path clip-rule="evenodd" d="M2.40002 17.6106V6.3892C2.40002 4.18596 4.18608 2.3999 6.38932 2.3999H17.6107C19.814 2.3999 21.6 4.18596 21.6 6.3892V17.6106C21.6 19.8138 19.814 21.5999 17.6107 21.5999H6.38932C4.18608 21.5999 2.40002 19.8138 2.40002 17.6106ZM6.55995 9.96611C4.926 14.7018 9.29815 19.0739 14.0338 17.44C15.63 16.8894 16.8896 15.6299 17.4401 14.0338C19.074 9.29803 14.7019 4.92588 9.96612 6.55982C8.37002 7.11037 7.11049 8.37002 6.55995 9.96611ZM18 6.59993C18.6628 6.59993 19.2 6.06268 19.2 5.39993C19.2 4.73719 18.6628 4.19993 18 4.19993C17.3373 4.19993 16.8 4.73719 16.8 5.39993C16.8 6.06268 17.3373 6.59993 18 6.59993Z"/>
</symbol><symbol id="icon-since" viewBox="0 0 36.000000 35.000000" preserveAspectRatio="xMidYMid meet">

<g transform="translate(0.000000,35.000000) scale(0.100000,-0.100000)" stroke="none">
<path d="M87 295 l-89 -52 31 -22 c23 -17 31 -30 31 -53 0 -16 8 -43 17 -59
14 -24 15 -33 5 -49 -21 -34 -15 -60 13 -60 28 0 34 25 14 61 -10 19 -8 20 34
14 90 -14 157 24 157 89 0 27 7 39 31 57 l31 21 -92 54 c-51 30 -93 54 -94 53
0 0 -41 -25 -89 -54z m168 -12 c36 -21 65 -40 65 -43 0 -7 -130 -80 -144 -80
-6 0 -22 9 -36 19 l-24 19 37 18 c20 10 37 21 37 26 0 12 -6 10 -51 -13 -35
-17 -45 -19 -70 -9 -16 7 -29 15 -29 19 0 9 122 80 138 81 7 0 42 -17 77 -37z
m-165 -125 c0 -25 -3 -29 -10 -18 -13 20 -13 50 0 50 6 0 10 -15 10 -32z m200
13 c0 -53 -71 -91 -144 -77 -30 6 -34 11 -38 41 -5 40 -1 42 41 18 30 -18 32
-18 78 9 57 33 63 34 63 9z m-185 -141 c3 -5 1 -10 -4 -10 -6 0 -11 5 -11 10
0 6 2 10 4 10 3 0 8 -4 11 -10z"/>
</g>
</symbol><symbol id="icon-star" viewBox="0 0 28.000000 33.000000" preserveAspectRatio="xMidYMid meet">

<g transform="translate(0.000000,33.000000) scale(0.100000,-0.100000)" stroke="none">
<path d="M115 292 c-17 -31 -26 -37 -55 -39 -19 -1 -41 -2 -47 -2 -9 -1 -6
-14 8 -44 l21 -43 -21 -42 -21 -41 48 -3 c43 -3 49 -6 67 -40 11 -21 22 -38
25 -38 3 0 14 17 25 38 18 34 24 37 67 40 l48 3 -21 41 -21 42 21 43 c14 30
17 43 8 44 -6 0 -28 1 -47 2 -29 2 -38 8 -55 39 -11 21 -22 38 -25 38 -3 0
-14 -17 -25 -38z m39 -18 c9 -23 8 -24 -14 -24 -11 0 -20 2 -20 4 0 12 13 36
20 36 4 0 11 -7 14 -16z m-85 -65 c-9 -17 -13 -19 -20 -8 -14 22 -11 29 11 29
18 0 19 -3 9 -21z m124 -11 c17 -30 17 -33 0 -65 -15 -28 -23 -33 -53 -33 -29
0 -38 6 -53 32 -17 30 -17 33 0 65 15 28 23 33 53 33 29 0 38 -6 53 -32z m47
25 c0 -5 -4 -14 -9 -22 -7 -11 -11 -9 -20 8 -10 18 -9 21 9 21 11 0 20 -3 20
-7z m-170 -103 c9 -18 8 -20 -15 -20 -23 0 -24 2 -13 20 7 11 14 20 15 20 1 0
7 -9 13 -20z m169 -2 c12 -16 11 -18 -13 -18 -24 0 -26 2 -16 21 7 11 13 19
14 17 1 -1 8 -11 15 -20z m-79 -45 c0 -5 -5 -15 -10 -23 -9 -13 -11 -13 -20 0
-15 22 -12 30 10 30 11 0 20 -3 20 -7z"/>
</g>
</symbol><symbol id="icon-telegram" viewBox="0 0 22 18">
<path d="M8.63262 11.8632L8.2687 16.8888C8.78938 16.8888 9.01488 16.6692 9.2853 16.4055L11.7264 14.115L16.7847 17.7519C17.7124 18.2595 18.366 17.9922 18.6163 16.914L21.9365 1.63926L21.9374 1.63836C22.2317 0.291963 21.4415 -0.234534 20.5377 0.0957645L1.02135 7.43163C-0.310594 7.93922 -0.290427 8.66822 0.794932 8.99852L5.78447 10.5222L17.3742 3.40235C17.9196 3.04775 18.4155 3.24395 18.0076 3.59855L8.63262 11.8632Z"/>
</symbol><symbol id="icon-twitter" viewBox="0 0 24 18">
<path d="M23.0768 2.1309C22.2529 2.49228 21.3751 2.73182 20.4599 2.84812C21.4014 2.28597 22.12 1.4026 22.4578 0.337842C21.58 0.861221 20.6108 1.23091 19.5779 1.43722C18.7443 0.549686 17.5564 0 16.2604 0C13.7459 0 11.7217 2.0409 11.7217 4.54287C11.7217 4.90287 11.7521 5.24902 11.8269 5.57855C8.05108 5.3944 4.71004 3.58473 2.4656 0.827991C2.07376 1.50783 1.84392 2.28597 1.84392 3.12366C1.84392 4.69656 2.65391 6.09086 3.86128 6.89808C3.13159 6.88423 2.41576 6.67239 1.8093 6.3387C1.8093 6.35255 1.8093 6.37055 1.8093 6.38855C1.8093 8.5956 3.38359 10.4288 5.44803 10.8511C5.07834 10.9522 4.67542 11.0006 4.25727 11.0006C3.96651 11.0006 3.67297 10.984 3.39744 10.9231C3.98589 12.7217 5.65572 14.044 7.64124 14.0869C6.09602 15.2957 4.13405 16.024 2.01007 16.024C1.63761 16.024 1.28038 16.0074 0.923157 15.9617C2.93498 17.259 5.31926 17.9998 7.89047 17.9998C16.2479 17.9998 20.8171 11.0768 20.8171 5.07594C20.8171 4.87518 20.8102 4.68133 20.8005 4.48887C21.7019 3.84919 22.4592 3.05027 23.0768 2.1309Z"/>
</symbol><symbol id="icon-whatsapp" viewBox="0 0 20 20">
<path d="M10.0025 0H9.9975C4.48375 0 0 4.485 0 10C0 12.1875 0.705 14.215 1.90375 15.8612L0.6575 19.5763L4.50125 18.3475C6.0825 19.395 7.96875 20 10.0025 20C15.5162 20 20 15.5138 20 10C20 4.48625 15.5162 0 10.0025 0ZM15.8212 14.1213C15.58 14.8025 14.6225 15.3675 13.8587 15.5325C13.3363 15.6437 12.6537 15.7325 10.3562 14.78C7.4175 13.5625 5.525 10.5763 5.3775 10.3825C5.23625 10.1887 4.19 8.80125 4.19 7.36625C4.19 5.93125 4.91875 5.2325 5.2125 4.9325C5.45375 4.68625 5.8525 4.57375 6.235 4.57375C6.35875 4.57375 6.47 4.58 6.57 4.585C6.86375 4.5975 7.01125 4.615 7.205 5.07875C7.44625 5.66 8.03375 7.095 8.10375 7.2425C8.175 7.39 8.24625 7.59 8.14625 7.78375C8.0525 7.98375 7.97 8.0725 7.8225 8.2425C7.675 8.4125 7.535 8.5425 7.3875 8.725C7.2525 8.88375 7.1 9.05375 7.27 9.3475C7.44 9.635 8.0275 10.5937 8.8925 11.3637C10.0087 12.3575 10.9137 12.675 11.2375 12.81C11.4787 12.91 11.7662 12.8863 11.9425 12.6988C12.1663 12.4575 12.4425 12.0575 12.7238 11.6638C12.9237 11.3813 13.1763 11.3462 13.4412 11.4462C13.7113 11.54 15.14 12.2462 15.4338 12.3925C15.7275 12.54 15.9212 12.61 15.9925 12.7338C16.0625 12.8575 16.0625 13.4388 15.8212 14.1213Z"/>
</symbol></svg>